<?xml version="1.0" encoding="UTF-8"?>
<svg xmlns="http://www.w3.org/2000/svg" version="1.1" viewBox="0 0 63.6 61.3">
  <defs>
    <style>
      .cls-1 {
        fill: #231f20;
      }
    </style>
  </defs>
  <!-- Generator: Adobe Illustrator 28.7.1, SVG Export Plug-In . SVG Version: 1.2.0 Build 142)  -->
  <g>
    <g id="Layer_1">
      <path class="cls-1" d="M31.8,4.1c-14.7,0-26.6,11.9-26.6,26.6s11.9,26.6,26.6,26.6,26.6-11.9,26.6-26.6S46.4,4.1,31.8,4.1ZM46.7,37.8c-1.7,1.7-4.6,1.7-6.3,0l-8.6-8.6-8.6,8.6c-1.7,1.7-4.6,1.7-6.3,0s-1.7-4.6,0-6.3l11.5-11.5c.9-.9,2.2-1.4,3.4-1.3,1.2,0,2.5.3,3.4,1.3l11.5,11.5c1.7,1.7,1.7,4.6,0,6.3Z"/>
    </g>
  </g>
</svg>