<?xml version="1.0" encoding="UTF-8"?>
<svg xmlns="http://www.w3.org/2000/svg" version="1.1" viewBox="0 0 63.6 61.3">
  <defs>
    <style>
      .cls-1 {
        fill: #fff;
        stroke: #000;
        stroke-miterlimit: 10;
      }

      .cls-2 {
        fill: #231f20;
      }
    </style>
  </defs>
  <!-- Generator: Adobe Illustrator 28.7.1, SVG Export Plug-In . SVG Version: 1.2.0 Build 142)  -->
  <g>
    <g id="Layer_1">
      <rect class="cls-1" x="15.9" y="13.1" width="35.7" height="34.3"/>
      <g id="Layer_1-2" data-name="Layer_1">
        <path class="cls-2" d="M31.8,1.2C15.5,1.2,2.3,14.4,2.3,30.6s13.2,29.5,29.5,29.5,29.5-13.2,29.5-29.5S48.1,1.2,31.8,1.2ZM43.8,43.6h-24.1c-1.5,0-2.8-1.2-2.8-2.8s1.2-2.8,2.8-2.8h24.1c1.5,0,2.8,1.2,2.8,2.8s-1.2,2.8-2.8,2.8ZM43.8,32.8h-24.1c-1.5,0-2.8-1.2-2.8-2.8s1.2-2.8,2.8-2.8h24.1c1.5,0,2.8,1.2,2.8,2.8s-1.2,2.8-2.8,2.8ZM43.8,21.7h-24.1c-1.5,0-2.8-1.2-2.8-2.8s1.2-2.8,2.8-2.8h24.1c1.5,0,2.8,1.2,2.8,2.8s-1.2,2.8-2.8,2.8Z"/>
      </g>
    </g>
  </g>
</svg>