<?xml version="1.0" encoding="UTF-8"?>
<svg xmlns="http://www.w3.org/2000/svg" version="1.1" viewBox="0 0 63.57 61.28">
  <defs>
    <style>
      .cls-1 {
        fill: #fff;
      }
    </style>
  </defs>
  <!-- Generator: Adobe Illustrator 28.7.1, SVG Export Plug-In . SVG Version: 1.2.0 Build 142)  -->
  <g>
    <g id="Layer_1">
      <g id="Layer_1-2" data-name="Layer_1">
        <path class="cls-1" d="M6.31,7.12h49.86c2.47,0,4.47,2,4.47,4.47h0c0,2.47-2,4.46-4.47,4.46H6.31c-2.47,0-4.47-2-4.47-4.47h0c0-2.47,2-4.46,4.47-4.46Z"/>
        <path class="cls-1" d="M6.31,25.56h49.86c2.47,0,4.47,2,4.47,4.47h0c0,2.47-2,4.46-4.47,4.46H6.31c-2.47,0-4.47-2-4.47-4.47h0c0-2.47,2-4.46,4.47-4.46Z"/>
        <path class="cls-1" d="M6.31,44h49.86c2.47,0,4.47,2,4.47,4.47h0c0,2.47-2,4.47-4.47,4.47H6.31c-2.47,0-4.47-2-4.47-4.47h0c0-2.47,2-4.47,4.47-4.47Z"/>
      </g>
    </g>
  </g>
</svg>